<?xml version="1.0" encoding="utf-8"?>
<svg version="1.1" id="Layer_1" x="0px" y="0px" viewBox="190 653 1120 192" style="enable-background:new 0 0 1500 1500;" xmlns="http://www.w3.org/2000/svg">
  <style type="text/css">
	.st0{fill:url(#SVGID_1_);}
	.st1{fill:url(#SVGID_2_);}
	.st2{fill:url(#SVGID_3_);}
	.st3{fill:url(#SVGID_4_);}
	.st4{fill:#EA3021;}
	.st5{fill:url(#SVGID_5_);}
	.st6{fill:url(#SVGID_6_);}
	.st7{fill:url(#SVGID_7_);}
	.st8{fill:url(#SVGID_8_);}
</style>
  <linearGradient id="SVGID_1_" gradientUnits="userSpaceOnUse" x1="270.6981" y1="666.403" x2="280.2269" y2="826.0104">
    <stop offset="0" style="stop-color:#3A7EE7"/>
    <stop offset="0.6124" style="stop-color:#56B3E5"/>
  </linearGradient>
  <path class="st0" d="M356.96,817.18c-18.53,18.27-42.47,26.77-68.47,26.77c-66.92,0-95.24-46.07-95.49-92.92 c-0.26-47.1,30.37-94.98,95.49-94.98c24.45,0,47.62,9.27,66.15,27.54l-22.65,21.88c-11.84-11.58-27.8-16.99-43.5-16.99 c-43.5,0-62.29,32.43-62.03,62.55c0.26,29.86,17.5,61,62.03,61c15.7,0,33.46-6.43,45.3-18.28L356.96,817.18z"/>
  <linearGradient id="SVGID_2_" gradientUnits="userSpaceOnUse" x1="654.1288" y1="629.5536" x2="654.1288" y2="823.5501">
    <stop offset="0" style="stop-color:#3A7EE7"/>
    <stop offset="0.5906" style="stop-color:#56B3E5"/>
  </linearGradient>
  <path class="st1" d="M734.56,748.2c0.77,45.56-27.03,91.63-90.09,91.63c-22.14,0-48.65,0-70.78,0V659.65c22.14,0,48.65,0,70.78,0 C706.24,659.65,733.78,703.67,734.56,748.2z M607.4,807.14h37.06c40.93,0,57.14-29.86,56.37-59.2 c-0.77-28.06-17.25-56.11-56.37-56.11H607.4V807.14z"/>
  <linearGradient id="SVGID_3_" gradientUnits="userSpaceOnUse" x1="823.8721" y1="629.5536" x2="823.8721" y2="823.5501">
    <stop offset="0" style="stop-color:#3A7EE7"/>
    <stop offset="0.5025" style="stop-color:#56B3E5"/>
  </linearGradient>
  <path class="st2" d="M891.31,839.83H756.44c0-59.97,0-120.2,0-180.17h134.87v32.95H790.15v41.44h97.55v31.66h-97.55v40.67h101.15 V839.83z"/>
  <linearGradient id="SVGID_4_" gradientUnits="userSpaceOnUse" x1="1018.7189" y1="851.7311" x2="1018.7189" y2="680.3798">
    <stop offset="0" style="stop-color:#F5C99D"/>
    <stop offset="1" style="stop-color:#EF8431"/>
  </linearGradient>
  <path class="st3" d="M1021.04,783.2h-4.63l-65.38-91.63v148.26h-22.14V659.65h26.77l63.32,92.66l62.8-92.66h26.77v180.17h-22.14 V692.09L1021.04,783.2z"/>
  <path class="st4" d="M1222.58,774.97h-43.76v64.86h-22.39V659.65h81.85c19.22,0,34.19,5.66,44.91,16.99 c10.72,11.33,16.09,24.88,16.09,40.67c0.17,14.76-4.03,27.41-12.61,37.97c-8.58,10.55-21.62,16.52-39.12,17.89l59.46,66.66h-28.31 L1222.58,774.97z M1266.72,744.47c6.78-6.95,10.17-15.83,10.17-26.64c0.17-9.95-3.17-18.79-10.04-26.51 c-6.86-7.72-16.39-11.58-28.57-11.58h-59.46v75.16h58.43C1250.12,754.89,1259.94,751.42,1266.72,744.47z"/>
  <linearGradient id="SVGID_5_" gradientUnits="userSpaceOnUse" x1="394.7291" y1="749.6616" x2="553.4787" y2="749.6616">
    <stop offset="0" style="stop-color:#326EE7"/>
    <stop offset="1" style="stop-color:#6FE3E4"/>
  </linearGradient>
  <path class="st5" d="M467.89,656.4c32.27,3.28,57.46,30.52,57.46,63.64c0,33.3-25.47,60.64-58,63.67c-2.36,0.5-4.79,0.77-7.3,0.77 c-19.34,0-35.01-15.67-35.01-35c0-16.72,11.73-30.67,27.4-34.15c-32.39,3.17-57.7,30.46-57.7,63.66c0,32.81,24.73,59.82,56.57,63.51 c1.19,0.11,2.39,0.21,3.59,0.27c0.23,0.01,0.46,0.02,0.69,0.04c1.48,0.07,2.96,0.11,4.46,0.11c51.6,0,93.43-41.83,93.43-93.43 C553.48,700.53,515.82,660.39,467.89,656.4z"/>
  <linearGradient id="SVGID_6_" gradientUnits="userSpaceOnUse" x1="366.6137" y1="749.2737" x2="525.3447" y2="749.2737">
    <stop offset="0" style="stop-color:#6FE3E4"/>
    <stop offset="1" style="stop-color:#326EE7"/>
  </linearGradient>
  <path class="st6" d="M525.34,720.04c0,10.61-2.59,20.62-7.17,29.44c0,0-0.01,0.03-0.04,0.08c-2.37,4.54-5.27,8.76-8.62,12.59 c-0.32,0.36-0.64,0.73-0.97,1.08c-0.32,0.35-0.65,0.71-0.99,1.05c-8.69,9.05-20.01,15.56-32.73,18.28 c-0.38,0.08-0.77,0.16-1.15,0.24c-0.9,0.17-1.83,0.32-2.77,0.47c-1.17,0.18-2.37,0.32-3.57,0.44c0.34-0.07,0.69-0.16,1.03-0.24 c0.08-0.02,0.17-0.04,0.25-0.06c15.19-3.81,26.43-17.56,26.43-33.93c0-19.32-15.68-35-35.01-35c-2.62,0-5.16,0.31-7.61,0.85 c-32.39,3.17-57.7,30.46-57.7,63.66c0,32.81,24.73,59.81,56.57,63.5c-47.49-4.41-84.69-44.36-84.69-93.01 c0-51.6,41.83-93.43,93.43-93.43c0.6,0,1.2,0.03,1.8,0.04c2.02,0.02,4.01,0.1,5.98,0.3c0.02,0.01,0.04,0.01,0.06,0.01 C500.16,659.69,525.34,686.92,525.34,720.04z"/>
  <linearGradient id="SVGID_7_" gradientUnits="userSpaceOnUse" x1="401.9462" y1="732.4078" x2="452.4345" y2="732.4078">
    <stop offset="0" style="stop-color:#553EF5"/>
    <stop offset="0.7091" style="stop-color:#3D7FE4"/>
  </linearGradient>
  <path class="st7" d="M452.43,715.33c-15.61,3.47-27.31,17.32-27.4,33.94v0.21h-23.09c0.03-0.07,0.06-0.14,0.11-0.21 C411.83,730.68,430.51,717.48,452.43,715.33z"/>
  <linearGradient id="SVGID_8_" gradientUnits="userSpaceOnUse" x1="467.6007" y1="766.576" x2="518.1722" y2="766.576">
    <stop offset="0.2678" style="stop-color:#3D7FE4"/>
    <stop offset="1" style="stop-color:#553EF5"/>
  </linearGradient>
  <path class="st8" d="M518.17,749.48c0,0-0.01,0.03-0.04,0.08c-0.35,0.76-3.02,6.23-8.62,12.59c-0.32,0.36-0.64,0.73-0.97,1.08 c-0.32,0.35-0.65,0.71-0.99,1.05c-6.92,7.27-17.57,15.12-32.73,18.28c-0.38,0.08-0.77,0.16-1.15,0.24c-0.9,0.17-1.83,0.32-2.77,0.47 c-1.08,0.16-2.18,0.29-3.31,0.4c0.12-0.03,0.38-0.09,0.77-0.2c0.08-0.02,0.17-0.04,0.25-0.06c15.19-3.81,26.43-17.56,26.43-33.93 H518.17z"/>
</svg>