<?xml version="1.0" encoding="utf-8"?>
<svg viewBox="0 0 40 40" preserveAspectRatio="xMinYMin" width="80px" height="80px" xmlns="http://www.w3.org/2000/svg">
  <g transform="matrix(0.16824, 0, 0, 0.167877, -50.687733, -105.901276)">
    <linearGradient id="SVGID_5_" gradientUnits="userSpaceOnUse" x1="313.1861" y1="742.0687" x2="501.1116" y2="742.0687">
      <stop offset="0" style="stop-color:#6FE3E4"/>
      <stop offset="1" style="stop-color:#326EE7"/>
    </linearGradient>
    <path class="st5" d="M466.56,653.28c-14.03-6.75-29.76-10.54-46.38-10.54c-59.09,0-106.99,47.9-106.99,106.97 c0,38.73,20.59,72.65,51.4,91.44c0.15,0.09,0.3,0.18,0.45,0.26c-9.25-8.81-42.29-44.67-22.53-89.71c1.07-2.44,2.29-4.89,3.67-7.37 c2.5-3.71,13.29-23.49,49.15-34.35c0.02,0,0.03,0,0.03,0c0.21-0.14,0.42-0.27,0.63-0.41c-7.82,1.92-27.46,7.91-41.04,22.21 c-1.1,1.13-8.05,7.22-13.48,18.26c2.27-5.22,10.77-21.3,32.67-32.33c0.18-0.11,0.36-0.2,0.54-0.29c4.03-2.09,8.53-4.02,13.49-5.64 c0.12-0.05,0.24-0.08,0.35-0.12c0.11-0.03,0.2-0.06,0.29-0.09c0.21-0.06,0.41-0.14,0.62-0.2c0.09-0.03,0.18-0.06,0.27-0.09 c0.02,0,0.03-0.02,0.05-0.02c2.05-0.63,4.26-1.28,6.53-1.85c6.99-4.17,15.17-6.56,23.91-6.56c23.66,0,43.22,17.55,46.4,40.34 c0.3,2.12,0.45,4.3,0.45,6.51c0,14.93-6.98,28.21-17.85,36.79c-0.2,0.17-0.39,0.32-0.59,0.47c0.03-0.01,0.06-0.01,0.11-0.03 c34.48-14.03,43.4-34.59,45.55-38.5c1.43-3.2,2.62-6.35,3.56-9.43C512.06,693,476.15,660.86,466.56,653.28z" style="fill: url(#SVGID_5_);"/>
    <linearGradient id="SVGID_6_" gradientUnits="userSpaceOnUse" x1="334.761" y1="760.1082" x2="527.149" y2="760.1082">
      <stop offset="0" style="stop-color:#326EE7"/>
      <stop offset="1" style="stop-color:#6FE3E4"/>
    </linearGradient>
    <path class="st6" d="M527.15,749.71c0,59.09-47.9,106.99-106.97,106.99c-20.17,0-39.03-5.58-55.13-15.29 c-0.15-0.08-0.3-0.17-0.45-0.26c-38.23-32.3-28.8-73.21-28.8-73.21c1.11-6.84,3.19-12.71,5.55-17.61c0.05-0.09,0.09-0.2,0.14-0.29 c5.43-11.04,12.38-17.13,13.48-18.26c13.58-14.3,33.22-20.29,41.04-22.21c-0.21,0.14-0.42,0.27-0.63,0.41c0,0-0.02,0-0.03,0 c-13.22,8.29-22.02,22.98-22.02,39.73c0,0.45,0,0.9,0.01,1.34c0.72,25.27,21.42,45.52,46.85,45.52c7.4,0,14.39-1.71,20.6-4.77 c8.09-1.25,27.96-5.47,42.64-18.41c1.74-1.49,16.66-12.26,22.33-34.29c0,0,13.1-39.97-22.2-75.59 C509.99,682.99,527.15,714.35,527.15,749.71z" style="fill: url(#SVGID_6_);"/>
  </g>
  <g transform="matrix(0.16824, 0, 0, 0.167877, -50.687733, -105.901276)">
    <linearGradient id="SVGID_7_" gradientUnits="userSpaceOnUse" x1="313.1861" y1="742.0687" x2="508.1256" y2="742.0687">
      <stop offset="0" style="stop-color:#6FE3E4"/>
      <stop offset="1" style="stop-color:#326EE7"/>
    </linearGradient>
    <path class="st7" d="M505.75,739.11c-5.67,22.03-20.59,32.8-22.33,34.29c-14.68,12.93-34.55,17.16-42.64,18.41 c2.77-1.35,5.37-2.98,7.79-4.83c11.22-8.56,18.45-22.06,18.45-37.27c0-25.87-20.98-46.85-46.85-46.85 c-8.74,0-16.92,2.39-23.91,6.56c-2.27,0.57-4.48,1.22-6.53,1.85c-0.02,0-0.03,0.02-0.05,0.02c-0.09,0.03-0.18,0.06-0.27,0.09 c-0.21,0.06-0.41,0.14-0.62,0.2c-0.09,0.03-0.18,0.06-0.29,0.09c-0.11,0.05-0.23,0.08-0.35,0.12c-4.96,1.62-9.46,3.55-13.49,5.64 c-0.18,0.09-0.36,0.18-0.54,0.29c-21.9,11.04-30.39,27.12-32.67,32.33c5.43-11.04,12.38-17.13,13.48-18.26 c13.58-14.3,33.22-20.29,41.04-22.21c-0.21,0.14-0.42,0.27-0.63,0.41c0,0-0.02,0-0.03,0c-35.85,10.86-46.65,30.63-49.15,34.35 c-1.38,2.48-2.6,4.93-3.67,7.37c-19.76,45.04,13.28,80.9,22.53,89.71c-0.15-0.08-0.3-0.17-0.45-0.26 c-30.82-18.78-51.4-52.71-51.4-91.44c0-59.07,47.9-106.97,106.99-106.97c16.62,0,32.35,3.79,46.38,10.54 c5.99,2.89,11.69,6.33,16.99,10.24C518.85,699.13,505.75,739.11,505.75,739.11z" style="fill: url(#SVGID_7_);"/>
    <linearGradient id="SVGID_8_" gradientUnits="userSpaceOnUse" x1="334.761" y1="754.9874" x2="527.149" y2="754.9874">
      <stop offset="0" style="stop-color:#326EE7"/>
      <stop offset="1" style="stop-color:#6FE3E4"/>
    </linearGradient>
    <path class="st8" d="M527.15,749.71c0,59.09-47.9,106.99-106.97,106.99c-20.17,0-39.03-5.58-55.13-15.29 c-0.15-0.08-0.3-0.17-0.45-0.26c-38.23-32.3-28.8-73.21-28.8-73.21c1.11-6.84,3.19-12.71,5.55-17.61c0.05-0.09,0.09-0.2,0.14-0.29 c5.43-11.04,12.38-17.13,13.48-18.26c13.58-14.3,33.22-20.29,41.04-22.21c-0.21,0.14-0.42,0.27-0.63,0.41c0,0-0.02,0-0.03,0 c-13.22,8.29-22.02,22.98-22.02,39.73c0,0.45,0,0.9,0.01,1.34c0.72,25.27,21.42,45.52,46.85,45.52c7.4,0,14.39-1.71,20.6-4.77 c2.77-1.35,5.37-2.98,7.79-4.83c34.59-14.03,43.52-34.64,45.67-38.55c22.75-51.01-17.45-87.06-27.69-95.15 c5.99,2.89,11.69,6.33,16.99,10.24C509.99,682.99,527.15,714.35,527.15,749.71z" style="fill: url(#SVGID_8_);"/>
  </g>
  <g transform="matrix(0.16824, 0, 0, 0.167877, -50.687733, -105.820137)">
    <linearGradient id="SVGID_9_" gradientUnits="userSpaceOnUse" x1="313.1861" y1="742.0687" x2="508.1256" y2="742.0687">
      <stop offset="0" style="stop-color:#6FE3E4"/>
      <stop offset="1" style="stop-color:#326EE7"/>
    </linearGradient>
    <path class="st9" d="M505.75,739.11c-5.67,22.03-20.59,32.8-22.33,34.29c-14.68,12.93-34.55,17.16-42.64,18.41 c2.77-1.35,5.37-2.98,7.79-4.83c11.22-8.56,18.45-22.06,18.45-37.27c0-25.87-20.98-46.85-46.85-46.85 c-8.74,0-16.92,2.39-23.91,6.56c-0.09,0.05-0.17,0.11-0.26,0.15h-0.02c-0.21,0.14-0.42,0.27-0.63,0.41c0,0-0.02,0-0.03,0 c-35.85,10.86-46.65,30.63-49.15,34.35c-1.38,2.48-2.6,4.93-3.67,7.37c-19.76,45.04,13.28,80.9,22.53,89.71 c-0.15-0.08-0.3-0.17-0.45-0.26c-30.82-18.78-51.4-52.71-51.4-91.44c0-59.07,47.9-106.97,106.99-106.97 c16.62,0,32.35,3.79,46.38,10.54c5.99,2.89,11.69,6.33,16.99,10.24C518.85,699.13,505.75,739.11,505.75,739.11z" style="fill: url(#SVGID_9_);"/>
    <linearGradient id="SVGID_10_" gradientUnits="userSpaceOnUse" x1="334.761" y1="754.9874" x2="527.149" y2="754.9874">
      <stop offset="0" style="stop-color:#326EE7"/>
      <stop offset="1" style="stop-color:#6FE3E4"/>
    </linearGradient>
    <path class="st10" d="M527.15,749.71c0,59.09-47.9,106.99-106.97,106.99c-20.17,0-39.03-5.58-55.13-15.29 c-0.15-0.08-0.3-0.17-0.45-0.26c-38.23-32.3-28.8-73.21-28.8-73.21c1.11-6.84,3.19-12.71,5.55-17.61c0.05-0.09,0.09-0.2,0.14-0.29 c5.43-11.04,12.38-17.13,13.48-18.26c13.58-14.3,33.22-20.29,41.04-22.21c-0.21,0.14-0.42,0.27-0.63,0.41c0,0-0.02,0-0.03,0 c-13.22,8.29-22.02,22.98-22.02,39.73c0,0.45,0,0.9,0.01,1.34c0.72,25.27,21.42,45.52,46.85,45.52c7.4,0,14.39-1.71,20.6-4.77 c2.77-1.35,5.37-2.98,7.79-4.83c34.59-14.03,43.52-34.64,45.67-38.55c22.75-51.01-17.45-87.06-27.69-95.15 c5.99,2.89,11.69,6.33,16.99,10.24C509.99,682.99,527.15,714.35,527.15,749.71z" style="fill: url(#SVGID_10_);"/>
  </g>
  <linearGradient id="SVGID_11_" gradientUnits="userSpaceOnUse" x1="341.4749" y1="729.8114" x2="395.992" y2="729.8114" gradientTransform="matrix(0.16824, 0, 0, 0.167877, -50.687733, -105.901281)">
    <stop offset="0" style="stop-color:#553EF5"/>
    <stop offset="0.7091" style="stop-color:#3D7FE4"/>
  </linearGradient>
  <path class="st11" d="M 15.934 13.221 C 15.898 13.245 15.863 13.266 15.828 13.29 C 15.828 13.29 15.824 13.29 15.823 13.29 C 13.598 14.682 12.118 17.148 12.118 19.96 L 12.118 20.015 L 6.761 20.015 C 7.675 18.162 8.844 17.139 9.029 16.95 C 11.314 14.549 14.618 13.543 15.934 13.221 Z" style="fill: url(#SVGID_11_);"/>
  <linearGradient id="SVGID_12_" gradientUnits="userSpaceOnUse" x1="448.5842" y1="768.5073" x2="493.401" y2="768.5073" gradientTransform="matrix(0.16824, 0, 0, 0.167877, -50.687733, -105.901281)">
    <stop offset="0.2793" style="stop-color:#3D7FE4"/>
    <stop offset="0.5158" style="stop-color:#4765EB"/>
    <stop offset="0.8227" style="stop-color:#5149F2"/>
    <stop offset="1" style="stop-color:#553EF5"/>
  </linearGradient>
  <path class="st12" d="M 32.322 20.015 C 31.768 21.068 30.032 24.083 24.8 26.208 C 24.791 26.211 24.786 26.211 24.781 26.213 C 24.815 26.188 24.847 26.163 24.881 26.134 C 26.698 24.706 27.867 22.498 27.884 20.013 L 32.322 20.013 Z" style="fill: url(#SVGID_12_);"/>
</svg>