<?xml version="1.0" encoding="iso-8859-1"?>
<!-- Generator: Adobe Illustrator 19.0.0, SVG Export Plug-In . SVG Version: 6.00 Build 0)  -->
<svg version="1.1" id="Layer_1" xmlns="http://www.w3.org/2000/svg" xmlns:xlink="http://www.w3.org/1999/xlink" x="0px" y="0px"
	 viewBox="0 0 512.001 512.001" style="enable-background:new 0 0 512.001 512.001;" xml:space="preserve">
<path style="fill:#A5EB78;" d="M123.581,5.386c-3.291-0.481-6.731,0.513-9.243,2.76c-2.518,2.253-3.901,5.511-3.767,8.886
	c3.788,95.65,75.383,175.491,170.236,189.834c0.357,0.053,0.715,0.095,1.068,0.115c2.987,0.166,5.936-0.855,8.18-2.869
	c2.518-2.253,3.901-5.511,3.767-8.886C290.036,99.565,218.44,19.729,123.581,5.386z"/>
<path style="fill:#8CD76E;" d="M280.807,206.867c0.357,0.053,0.715,0.095,1.068,0.115c2.987,0.166,5.936-0.855,8.18-2.869
	L114.59,8.006c-0.075,0.063-0.179,0.074-0.252,0.14c-2.518,2.253-3.901,5.511-3.767,8.886
	C114.358,112.683,185.953,192.524,280.807,206.867z"/>
<path style="fill:#A5EB78;" d="M387.222,7.043c3.37-0.304,6.808,0.9,9.233,3.325c2.431,2.431,3.652,5.818,3.325,9.239
	c-9.244,96.946-86.475,174.007-183.634,183.224c-0.366,0.034-0.731,0.056-1.091,0.056c-3.044,0-5.981-1.204-8.147-3.376
	c-2.431-2.431-3.651-5.818-3.325-9.239C212.825,93.316,290.056,16.26,387.222,7.043z"/>
<path style="fill:#8CD76E;" d="M216.145,202.832c-0.366,0.034-0.731,0.056-1.091,0.056c-3.044,0-5.981-1.204-8.147-3.376
	L396.207,10.212c0.072,0.069,0.177,0.085,0.248,0.157c2.431,2.431,3.652,5.818,3.325,9.239
	C390.536,116.554,313.305,193.616,216.145,202.832z"/>
<path style="fill:#FF6464;" d="M439.832,283.643c0,98.431-97.195,220.359-183.831,220.359c-86.636,0-183.83-121.928-183.83-220.359
	s82.304-147.397,183.83-147.397C357.528,136.245,439.832,185.212,439.832,283.643z"/>
<path style="fill:#D2555A;" d="M178.84,276.676c0-87.869,39.505-128.793,91.991-137.595c-10.459-1.247-21.281-1.856-32.367-1.856
	c-89.379,0-167.634,54.464-167.634,154.774S182.016,489.411,228.83,501.001c10.691,2.647,22.096,4.122,27.17,3
	C208.264,488.08,178.84,370.382,178.84,276.676z"/>
<g>
	<path style="fill:#2D2B29;" d="M390.739,166.595c-12.678-9.354-27.109-17.063-43.026-23.054c4.438-3.641,8.725-7.516,12.811-11.602
		c17.415-17.415,30.849-38.205,38.848-60.123c7.831-21.455,10.334-43.524,7.241-63.824c-0.527-3.46-3.243-6.176-6.704-6.704
		c-20.297-3.092-42.367-0.589-63.823,7.241c-21.917,8-42.708,21.433-60.123,38.848c-7.429,7.429-14.1,15.442-19.96,23.904
		c-5.836-8.43-12.515-16.452-19.967-23.904C218.62,29.962,197.83,16.527,175.912,8.528c-21.455-7.83-43.525-10.333-63.824-7.241
		c-3.46,0.527-6.176,3.243-6.704,6.704c-3.093,20.298-0.589,42.368,7.241,63.824c8,21.917,21.433,42.708,38.848,60.123
		c4.086,4.086,8.374,7.961,12.813,11.603c-15.917,5.991-30.347,13.699-43.024,23.053c-37.351,27.559-57.093,68.034-57.093,117.048
		c0,48.573,22.895,105.459,61.244,152.167c18.469,22.496,39.615,41.319,61.152,54.435c23.706,14.437,47.066,21.756,69.435,21.756
		c22.368,0,45.728-7.32,69.435-21.756c21.537-13.116,42.683-31.939,61.152-54.435c38.349-46.708,61.244-103.594,61.244-152.167
		C447.832,234.628,428.09,194.154,390.739,166.595z M287.277,58.692c29.565-29.564,68.965-45.424,104.237-42.304
		c3.118,35.273-12.739,74.672-42.304,104.237c-6.22,6.22-12.938,11.912-19.97,16.925c-12.524-3.46-25.801-5.976-39.732-7.51
		l28.112-28.112c3.125-3.124,3.125-8.189,0-11.313c-3.124-3.124-8.189-3.124-11.313,0l-27.891,27.891
		c-3.067-11.018-7.493-21.841-13.154-32.223C271.432,76.416,278.82,67.15,287.277,58.692z M162.79,120.625
		c-29.565-29.565-45.422-68.964-42.304-104.237c35.276-3.12,74.672,12.739,104.237,42.304c20.042,20.042,33.912,44.488,39.694,69.67
		c-2.786-0.072-5.588-0.117-8.416-0.117c-6.805,0-13.489,0.21-20.045,0.626l-38.256-38.256c-3.124-3.124-8.189-3.124-11.313,0
		c-3.125,3.124-3.125,8.189,0,11.313l28.991,28.991c-11.351,1.548-22.242,3.765-32.616,6.631
		C175.728,132.535,169.008,126.843,162.79,120.625z M375.5,424.071c-4.222,0.22-7.58,3.702-7.58,7.979v1.002
		c-17.543,19.886-36.701,35.686-55.952,46.479v-7.508c0-4.418-3.582-8-8-8s-8,3.582-8,8v7.995c0,2.443,1.098,4.627,2.825,6.094
		c-14.638,6.448-29.127,9.89-42.791,9.89c-13.664,0-28.154-3.442-42.792-9.891c1.726-1.467,2.823-3.65,2.823-6.093v-7.995
		c0-4.418-3.582-8-8-8c-4.418,0-8,3.582-8,8v7.506c-19.251-10.793-38.408-26.594-55.952-46.48v-0.999
		c0-4.275-3.356-7.757-7.577-7.979c-5.924-7.322-11.446-14.887-16.534-22.622c0.078-0.449,0.127-0.907,0.127-1.378v-7.995
		c0-4.418-3.582-8-8-8c-0.857,0-1.681,0.138-2.455,0.387c-5.319-9.497-9.99-19.149-13.946-28.827
		c0.267-0.797,0.417-1.647,0.417-2.534v-1.999c0-3.325-2.029-6.174-4.916-7.382c-7.165-20.604-11.025-41.064-11.025-60.077
		c0-0.789,0.022-1.561,0.033-2.342c0.559,3.872,3.881,6.85,7.908,6.85c4.418,0,8-3.582,8-8v-7.995c0-4.418-3.582-8-8-8
		c-3.232,0-6.01,1.921-7.272,4.681c4.692-51.484,33.979-84.471,73.091-103.479c0.152,0.183,0.311,0.362,0.48,0.531
		c1.49,1.49,3.55,2.34,5.65,2.34c2.11,0,4.17-0.85,5.66-2.34c1.49-1.49,2.34-3.55,2.34-5.66c0-0.322-0.026-0.642-0.066-0.96
		c10.372-3.979,21.252-7.114,32.414-9.46c-0.244,0.766-0.377,1.58-0.377,2.426v7.995c0,4.418,3.582,8,8,8c4.418,0,8-3.582,8-8
		v-7.995c0-1.86-0.64-3.567-1.705-4.925c13.685-2.068,27.63-3.051,41.427-3.063c-4.304,0.131-7.754,3.652-7.754,7.988v7.995
		c0,4.418,3.582,8,8,8c4.418,0,8-3.582,8-8v-7.995c0-4.336-3.451-7.857-7.755-7.988c13.797,0.012,27.742,0.994,41.428,3.062
		c-1.065,1.359-1.705,3.066-1.705,4.926v7.995c0,4.418,3.582,8,8,8s8-3.582,8-8v-7.995c0-0.846-0.133-1.661-0.377-2.427
		c11.16,2.345,22.037,5.479,32.407,9.457c-0.04,0.32-0.067,0.641-0.067,0.964c0,2.11,0.86,4.17,2.35,5.66
		c1.49,1.49,3.55,2.34,5.65,2.34c2.11,0,4.17-0.85,5.66-2.34c0.169-0.169,0.328-0.348,0.48-0.532
		c39.114,19.008,68.403,51.997,73.093,103.487c-1.26-2.764-4.04-4.688-7.276-4.688c-4.418,0-8,3.582-8,8v7.995c0,4.418,3.582,8,8,8
		c4.033,0,7.359-2.987,7.911-6.867c0.011,0.787,0.033,1.565,0.033,2.36c0,19.012-3.86,39.472-11.024,60.076
		c-2.889,1.207-4.919,4.057-4.919,7.383v1.999c0,0.888,0.151,1.74,0.418,2.538c-3.956,9.678-8.626,19.329-13.945,28.825
		c-0.775-0.25-1.6-0.388-2.458-0.388c-4.418,0-8,3.582-8,8v7.995c0,0.472,0.049,0.933,0.127,1.382
		C386.944,409.187,381.423,416.751,375.5,424.071z"/>
	<path style="fill:#2D2B29;" d="M279.984,184.208c-4.418,0-8,3.582-8,8v7.995c0,4.418,3.582,8,8,8s8-3.582,8-8v-7.995
		C287.984,187.79,284.402,184.208,279.984,184.208z"/>
	<path style="fill:#2D2B29;" d="M232.015,184.208c-4.418,0-8,3.582-8,8v7.995c0,4.418,3.582,8,8,8s8-3.582,8-8v-7.995
		C240.016,187.79,236.435,184.208,232.015,184.208z"/>
	<path style="fill:#2D2B29;" d="M184.047,184.208c-4.418,0-8,3.582-8,8v7.995c0,4.418,3.582,8,8,8s8-3.582,8-8v-7.995
		C192.047,187.79,188.466,184.208,184.047,184.208z"/>
	<path style="fill:#2D2B29;" d="M327.952,184.208c-4.418,0-8,3.582-8,8v7.995c0,4.418,3.582,8,8,8s8-3.582,8-8v-7.995
		C335.952,187.79,332.37,184.208,327.952,184.208z"/>
	<path style="fill:#2D2B29;" d="M375.921,184.208c-4.418,0-8,3.582-8,8v7.995c0,4.418,3.582,8,8,8c4.418,0,8-3.582,8-8v-7.995
		C383.921,187.79,380.339,184.208,375.921,184.208z"/>
	<path style="fill:#2D2B29;" d="M136.08,184.208c-4.418,0-8,3.582-8,8v7.995c0,4.418,3.582,8,8,8c4.418,0,8-3.582,8-8v-7.995
		C144.08,187.79,140.498,184.208,136.08,184.208z"/>
	<path style="fill:#2D2B29;" d="M279.984,264.155c-4.418,0-8,3.582-8,8v7.995c0,4.418,3.582,8,8,8s8-3.582,8-8v-7.995
		C287.984,267.736,284.402,264.155,279.984,264.155z"/>
	<path style="fill:#2D2B29;" d="M232.015,264.155c-4.418,0-8,3.582-8,8v7.995c0,4.418,3.582,8,8,8s8-3.582,8-8v-7.995
		C240.016,267.736,236.435,264.155,232.015,264.155z"/>
	<path style="fill:#2D2B29;" d="M184.047,264.155c-4.418,0-8,3.582-8,8v7.995c0,4.418,3.582,8,8,8s8-3.582,8-8v-7.995
		C192.047,267.736,188.466,264.155,184.047,264.155z"/>
	<path style="fill:#2D2B29;" d="M327.952,264.155c-4.418,0-8,3.582-8,8v7.995c0,4.418,3.582,8,8,8s8-3.582,8-8v-7.995
		C335.952,267.736,332.37,264.155,327.952,264.155z"/>
	<path style="fill:#2D2B29;" d="M375.921,264.155c-4.418,0-8,3.582-8,8v7.995c0,4.418,3.582,8,8,8c4.418,0,8-3.582,8-8v-7.995
		C383.921,267.736,380.339,264.155,375.921,264.155z"/>
	<path style="fill:#2D2B29;" d="M136.08,264.155c-4.418,0-8,3.582-8,8v7.995c0,4.418,3.582,8,8,8c4.418,0,8-3.582,8-8v-7.995
		C144.08,267.736,140.498,264.155,136.08,264.155z"/>
	<path style="fill:#2D2B29;" d="M279.984,344.102c-4.418,0-8,3.582-8,8v7.995c0,4.418,3.582,8,8,8s8-3.582,8-8v-7.995
		C287.984,347.684,284.402,344.102,279.984,344.102z"/>
	<path style="fill:#2D2B29;" d="M232.015,344.102c-4.418,0-8,3.582-8,8v7.995c0,4.418,3.582,8,8,8s8-3.582,8-8v-7.995
		C240.016,347.684,236.435,344.102,232.015,344.102z"/>
	<path style="fill:#2D2B29;" d="M184.047,344.102c-4.418,0-8,3.582-8,8v7.995c0,4.418,3.582,8,8,8s8-3.582,8-8v-7.995
		C192.047,347.684,188.466,344.102,184.047,344.102z"/>
	<path style="fill:#2D2B29;" d="M327.952,344.102c-4.418,0-8,3.582-8,8v7.995c0,4.418,3.582,8,8,8s8-3.582,8-8v-7.995
		C335.952,347.684,332.37,344.102,327.952,344.102z"/>
	<path style="fill:#2D2B29;" d="M375.921,344.102c-4.418,0-8,3.582-8,8v7.995c0,4.418,3.582,8,8,8c4.418,0,8-3.582,8-8v-7.995
		C383.921,347.684,380.339,344.102,375.921,344.102z"/>
	<path style="fill:#2D2B29;" d="M136.08,344.102c-4.418,0-8,3.582-8,8v7.995c0,4.418,3.582,8,8,8c4.418,0,8-3.582,8-8v-7.995
		C144.08,347.684,140.498,344.102,136.08,344.102z"/>
	<path style="fill:#2D2B29;" d="M279.984,424.049c-4.418,0-8,3.582-8,8v7.995c0,4.418,3.582,8,8,8s8-3.582,8-8v-7.995
		C287.984,427.631,284.402,424.049,279.984,424.049z"/>
	<path style="fill:#2D2B29;" d="M232.015,424.049c-4.418,0-8,3.582-8,8v7.995c0,4.418,3.582,8,8,8s8-3.582,8-8v-7.995
		C240.016,427.631,236.435,424.049,232.015,424.049z"/>
	<path style="fill:#2D2B29;" d="M184.047,424.049c-4.418,0-8,3.582-8,8v7.995c0,4.418,3.582,8,8,8s8-3.582,8-8v-7.995
		C192.047,427.631,188.466,424.049,184.047,424.049z"/>
	<path style="fill:#2D2B29;" d="M327.952,424.049c-4.418,0-8,3.582-8,8v7.995c0,4.418,3.582,8,8,8s8-3.582,8-8v-7.995
		C335.952,427.631,332.37,424.049,327.952,424.049z"/>
	<path style="fill:#2D2B29;" d="M303.968,224.182c-4.418,0-8,3.582-8,8v7.994c0,4.418,3.582,8,8,8s8-3.582,8-8v-7.994
		C311.968,227.763,308.386,224.182,303.968,224.182z"/>
	<path style="fill:#2D2B29;" d="M256,224.182c-4.418,0-8,3.582-8,8v7.994c0,4.418,3.582,8,8,8c4.418,0,8-3.582,8-8v-7.994
		C264,227.763,260.419,224.182,256,224.182z"/>
	<path style="fill:#2D2B29;" d="M208.031,224.182c-4.418,0-8,3.582-8,8v7.994c0,4.418,3.582,8,8,8c4.418,0,8-3.582,8-8v-7.994
		C216.031,227.763,212.45,224.182,208.031,224.182z"/>
	<path style="fill:#2D2B29;" d="M351.936,224.182c-4.418,0-8,3.582-8,8v7.994c0,4.418,3.582,8,8,8s8-3.582,8-8v-7.994
		C359.936,227.763,356.354,224.182,351.936,224.182z"/>
	<path style="fill:#2D2B29;" d="M399.904,248.176c4.418,0,8-3.582,8-8v-7.994c0-4.418-3.582-8-8-8s-8,3.582-8,8v7.994
		C391.904,244.594,395.486,248.176,399.904,248.176z"/>
	<path style="fill:#2D2B29;" d="M160.064,224.182c-4.418,0-8,3.582-8,8v7.994c0,4.418,3.582,8,8,8s8-3.582,8-8v-7.994
		C168.064,227.763,164.482,224.182,160.064,224.182z"/>
	<path style="fill:#2D2B29;" d="M112.096,224.182c-4.418,0-8,3.582-8,8v7.994c0,4.418,3.582,8,8,8c4.418,0,8-3.582,8-8v-7.994
		C120.096,227.763,116.514,224.182,112.096,224.182z"/>
	<path style="fill:#2D2B29;" d="M303.968,304.129c-4.418,0-8,3.582-8,8v7.995c0,4.418,3.582,8,8,8s8-3.582,8-8v-7.995
		C311.968,307.711,308.386,304.129,303.968,304.129z"/>
	<path style="fill:#2D2B29;" d="M256,304.129c-4.418,0-8,3.582-8,8v7.995c0,4.418,3.582,8,8,8c4.418,0,8-3.582,8-8v-7.995
		C264,307.711,260.419,304.129,256,304.129z"/>
	<path style="fill:#2D2B29;" d="M208.031,304.129c-4.418,0-8,3.582-8,8v7.995c0,4.418,3.582,8,8,8c4.418,0,8-3.582,8-8v-7.995
		C216.031,307.711,212.45,304.129,208.031,304.129z"/>
	<path style="fill:#2D2B29;" d="M351.936,304.129c-4.418,0-8,3.582-8,8v7.995c0,4.418,3.582,8,8,8s8-3.582,8-8v-7.995
		C359.936,307.711,356.354,304.129,351.936,304.129z"/>
	<path style="fill:#2D2B29;" d="M399.904,328.124c4.418,0,8-3.582,8-8v-7.995c0-4.418-3.582-8-8-8s-8,3.582-8,8v7.995
		C391.904,324.542,395.486,328.124,399.904,328.124z"/>
	<path style="fill:#2D2B29;" d="M160.064,304.129c-4.418,0-8,3.582-8,8v7.995c0,4.418,3.582,8,8,8s8-3.582,8-8v-7.995
		C168.064,307.711,164.482,304.129,160.064,304.129z"/>
	<path style="fill:#2D2B29;" d="M112.096,304.129c-4.418,0-8,3.582-8,8v7.995c0,4.418,3.582,8,8,8c4.418,0,8-3.582,8-8v-7.995
		C120.096,307.711,116.514,304.129,112.096,304.129z"/>
	<path style="fill:#2D2B29;" d="M303.968,384.075c-4.418,0-8,3.582-8,8v7.995c0,4.418,3.582,8,8,8s8-3.582,8-8v-7.995
		C311.968,387.657,308.386,384.075,303.968,384.075z"/>
	<path style="fill:#2D2B29;" d="M256,384.075c-4.418,0-8,3.582-8,8v7.995c0,4.418,3.582,8,8,8c4.418,0,8-3.582,8-8v-7.995
		C264,387.657,260.419,384.075,256,384.075z"/>
	<path style="fill:#2D2B29;" d="M208.031,384.075c-4.418,0-8,3.582-8,8v7.995c0,4.418,3.582,8,8,8c4.418,0,8-3.582,8-8v-7.995
		C216.031,387.657,212.45,384.075,208.031,384.075z"/>
	<path style="fill:#2D2B29;" d="M351.936,384.075c-4.418,0-8,3.582-8,8v7.995c0,4.418,3.582,8,8,8s8-3.582,8-8v-7.995
		C359.936,387.657,356.354,384.075,351.936,384.075z"/>
	<path style="fill:#2D2B29;" d="M160.064,384.075c-4.418,0-8,3.582-8,8v7.995c0,4.418,3.582,8,8,8s8-3.582,8-8v-7.995
		C168.064,387.657,164.482,384.075,160.064,384.075z"/>
	<path style="fill:#2D2B29;" d="M256,464.023c-4.418,0-8,3.582-8,8v7.995c0,4.418,3.582,8,8,8c4.418,0,8-3.582,8-8v-7.995
		C264,467.604,260.419,464.023,256,464.023z"/>
</g>
<g>
</g>
<g>
</g>
<g>
</g>
<g>
</g>
<g>
</g>
<g>
</g>
<g>
</g>
<g>
</g>
<g>
</g>
<g>
</g>
<g>
</g>
<g>
</g>
<g>
</g>
<g>
</g>
<g>
</g>
</svg>
